<svg xmlns="http://www.w3.org/2000/svg" enable-background="new 0 0 24 24" viewBox="0 0 24 24" id="dashboard"><path fill="#000000" d="M12,1.9c-5.5,0-10,4.5-10,10s4.5,10,10,10s10-4.5,10-10C22,6.4,17.5,1.9,12,1.9z M12,15.9c-0.6,0-1-0.4-1-1c0-0.6,0.4-1,1-1s1,0.4,1,1S12.6,15.9,12,15.9z M19.4,14.9L19.4,14.9l-4.4,0c0-1.3-0.8-2.4-2-2.8V8.9c0-0.6-0.4-1-1-1s-1,0.4-1,1v3.2c-1.2,0.4-2,1.5-2,2.8H4.6l0,0c-0.3-0.6-0.4-1.3-0.5-2H5c0.6,0,1-0.4,1-1s-0.4-1-1-1H4.1C4.2,9.5,4.8,8.2,5.7,7l0.7,0.7c0.4,0.4,1,0.4,1.4,0s0.4-1,0-1.4L7.1,5.6C8.2,4.7,9.6,4.2,11,4v0.9c0,0.6,0.4,1,1,1s1-0.4,1-1V4c1.4,0.2,2.8,0.7,3.9,1.6l-0.7,0.7c-0.4,0.4-0.4,1,0,1.4s1,0.4,1.4,0L18.3,7c0.9,1.1,1.4,2.5,1.6,3.9H19c-0.6,0-1,0.4-1,1s0.4,1,1,1h0.9C19.8,13.6,19.7,14.3,19.4,14.9z"></path></svg>